<?xml version="1.0" encoding="UTF-8"?>
<svg xmlns="http://www.w3.org/2000/svg" xmlns:xlink="http://www.w3.org/1999/xlink" width="785pt" height="500pt" viewBox="0 0 785 500" version="1.1">
<g id="surface1">
<rect x="0" y="0" width="785" height="500" style="fill:rgb(77.647059%,4.313725%,11.764706%);fill-opacity:1;stroke:none;"/>
<path style=" stroke:none;fill-rule:nonzero;fill:rgb(100%,100%,100%);fill-opacity:1;" d="M 119.890625 187.144531 L 238.355469 187.144531 L 144.15625 255.714844 L 179.835938 142.855469 L 215.519531 255.714844 "/>
<path style=" stroke:none;fill-rule:nonzero;fill:rgb(100%,100%,100%);fill-opacity:1;" d="M 262.617188 187.144531 L 381.082031 187.144531 L 286.882812 255.714844 L 322.5625 142.855469 L 358.246094 255.714844 "/>
<path style=" stroke:none;fill-rule:nonzero;fill:rgb(100%,100%,100%);fill-opacity:1;" d="M 405.34375 187.144531 L 523.808594 187.144531 L 429.609375 255.714844 L 465.289062 142.855469 L 500.972656 255.714844 "/>
<path style=" stroke:none;fill-rule:nonzero;fill:rgb(100%,100%,100%);fill-opacity:1;" d="M 548.074219 187.144531 L 666.535156 187.144531 L 572.335938 255.714844 L 608.019531 142.855469 L 643.699219 255.714844 "/>
<path style=" stroke:none;fill-rule:nonzero;fill:rgb(100%,100%,100%);fill-opacity:1;" d="M 191.253906 287.144531 L 309.71875 287.144531 L 215.519531 355.714844 L 251.199219 242.855469 L 286.882812 355.714844 "/>
<path style=" stroke:none;fill-rule:nonzero;fill:rgb(100%,100%,100%);fill-opacity:1;" d="M 333.980469 287.144531 L 452.445312 287.144531 L 358.246094 355.714844 L 393.925781 242.855469 L 429.609375 355.714844 "/>
<path style=" stroke:none;fill-rule:nonzero;fill:rgb(100%,100%,100%);fill-opacity:1;" d="M 476.710938 287.144531 L 595.171875 287.144531 L 500.972656 355.714844 L 536.65625 242.855469 L 572.335938 355.714844 "/>
</g>
</svg>
